<mxfile host="app.diagrams.net" modified="2022-01-17T20:07:26.228Z" agent="5.0 (Macintosh; Intel Mac OS X 10_15_7) AppleWebKit/537.36 (KHTML, like Gecko) Chrome/93.0.4577.63 Safari/537.36" etag="-LM4FPWcWs2o0UKyQeNV" version="16.2.7" type="github">
  <diagram id="_mQn2ZhS-5XswmsV8zku" name="Page-1">
    <mxGraphModel dx="900" dy="1041" grid="1" gridSize="10" guides="1" tooltips="1" connect="1" arrows="1" fold="1" page="1" pageScale="1" pageWidth="1169" pageHeight="827" math="0" shadow="0">
      <root>
        <mxCell id="0" />
        <mxCell id="1" parent="0" />
        <mxCell id="G6ge_VEYu1JqmQReZd8N-7" value="" style="group" vertex="1" connectable="0" parent="1">
          <mxGeometry x="515" y="371" width="175" height="147.5" as="geometry" />
        </mxCell>
        <mxCell id="G6ge_VEYu1JqmQReZd8N-59" value="" style="ellipse;whiteSpace=wrap;html=1;aspect=fixed;fontSize=10;fontColor=#FF0000;" vertex="1" parent="G6ge_VEYu1JqmQReZd8N-7">
          <mxGeometry x="-35" y="-62.5" width="210" height="210" as="geometry" />
        </mxCell>
        <mxCell id="G6ge_VEYu1JqmQReZd8N-3" value="" style="shape=card;whiteSpace=wrap;html=1;rotation=-90;size=20;" vertex="1" parent="G6ge_VEYu1JqmQReZd8N-7">
          <mxGeometry x="30" y="-25" width="80" height="140" as="geometry" />
        </mxCell>
        <mxCell id="G6ge_VEYu1JqmQReZd8N-4" value="199043" style="text;html=1;strokeColor=none;fillColor=none;align=center;verticalAlign=middle;whiteSpace=wrap;rounded=0;fontSize=16;" vertex="1" parent="G6ge_VEYu1JqmQReZd8N-7">
          <mxGeometry x="40" y="30" width="60" height="30" as="geometry" />
        </mxCell>
        <mxCell id="G6ge_VEYu1JqmQReZd8N-5" value="Techsol" style="text;html=1;strokeColor=none;fillColor=none;align=center;verticalAlign=middle;whiteSpace=wrap;rounded=0;fontSize=10;fontColor=#000099;" vertex="1" parent="G6ge_VEYu1JqmQReZd8N-7">
          <mxGeometry width="40" height="25" as="geometry" />
        </mxCell>
        <mxCell id="G6ge_VEYu1JqmQReZd8N-9" value="" style="group" vertex="1" connectable="0" parent="1">
          <mxGeometry x="970" y="50" width="130" height="70" as="geometry" />
        </mxCell>
        <mxCell id="G6ge_VEYu1JqmQReZd8N-10" value="" style="shape=card;whiteSpace=wrap;html=1;rotation=-90;size=20;" vertex="1" parent="G6ge_VEYu1JqmQReZd8N-9">
          <mxGeometry x="23.57142857142857" y="-20.588235294117645" width="62.857142857142854" height="115.29411764705881" as="geometry" />
        </mxCell>
        <mxCell id="G6ge_VEYu1JqmQReZd8N-11" value="199043" style="text;html=1;strokeColor=none;fillColor=none;align=center;verticalAlign=middle;whiteSpace=wrap;rounded=0;fontSize=16;" vertex="1" parent="G6ge_VEYu1JqmQReZd8N-9">
          <mxGeometry x="31.428571428571427" y="24.705882352941174" width="47.14285714285714" height="24.705882352941174" as="geometry" />
        </mxCell>
        <mxCell id="G6ge_VEYu1JqmQReZd8N-12" value="Techsol" style="text;html=1;strokeColor=none;fillColor=none;align=center;verticalAlign=middle;whiteSpace=wrap;rounded=0;fontSize=10;fontColor=#000099;" vertex="1" parent="G6ge_VEYu1JqmQReZd8N-9">
          <mxGeometry width="31.428571428571427" height="20.588235294117645" as="geometry" />
        </mxCell>
        <mxCell id="G6ge_VEYu1JqmQReZd8N-13" value="007" style="text;html=1;strokeColor=none;fillColor=none;align=center;verticalAlign=middle;whiteSpace=wrap;rounded=0;fontSize=10;fontColor=#FF0000;fontStyle=2" vertex="1" parent="G6ge_VEYu1JqmQReZd8N-9">
          <mxGeometry x="87" y="50" width="30" height="20" as="geometry" />
        </mxCell>
        <mxCell id="G6ge_VEYu1JqmQReZd8N-14" value="" style="group" vertex="1" connectable="0" parent="1">
          <mxGeometry x="970" y="290" width="130" height="70" as="geometry" />
        </mxCell>
        <mxCell id="G6ge_VEYu1JqmQReZd8N-15" value="" style="shape=card;whiteSpace=wrap;html=1;rotation=-90;size=20;" vertex="1" parent="G6ge_VEYu1JqmQReZd8N-14">
          <mxGeometry x="23.57142857142857" y="-20.588235294117645" width="62.857142857142854" height="115.29411764705881" as="geometry" />
        </mxCell>
        <mxCell id="G6ge_VEYu1JqmQReZd8N-16" value="199043" style="text;html=1;strokeColor=none;fillColor=none;align=center;verticalAlign=middle;whiteSpace=wrap;rounded=0;fontSize=16;" vertex="1" parent="G6ge_VEYu1JqmQReZd8N-14">
          <mxGeometry x="31.428571428571427" y="24.705882352941174" width="47.14285714285714" height="24.705882352941174" as="geometry" />
        </mxCell>
        <mxCell id="G6ge_VEYu1JqmQReZd8N-17" value="Techsol" style="text;html=1;strokeColor=none;fillColor=none;align=center;verticalAlign=middle;whiteSpace=wrap;rounded=0;fontSize=10;fontColor=#000099;" vertex="1" parent="G6ge_VEYu1JqmQReZd8N-14">
          <mxGeometry width="31.428571428571427" height="20.588235294117645" as="geometry" />
        </mxCell>
        <mxCell id="G6ge_VEYu1JqmQReZd8N-18" value="008" style="text;html=1;strokeColor=none;fillColor=none;align=center;verticalAlign=middle;whiteSpace=wrap;rounded=0;fontSize=10;fontColor=#FF0000;fontStyle=2" vertex="1" parent="G6ge_VEYu1JqmQReZd8N-14">
          <mxGeometry x="87" y="50" width="30" height="20" as="geometry" />
        </mxCell>
        <mxCell id="G6ge_VEYu1JqmQReZd8N-19" value="" style="group" vertex="1" connectable="0" parent="1">
          <mxGeometry x="970" y="480" width="130" height="70" as="geometry" />
        </mxCell>
        <mxCell id="G6ge_VEYu1JqmQReZd8N-20" value="" style="shape=card;whiteSpace=wrap;html=1;rotation=-90;size=20;" vertex="1" parent="G6ge_VEYu1JqmQReZd8N-19">
          <mxGeometry x="23.57142857142857" y="-20.588235294117645" width="62.857142857142854" height="115.29411764705881" as="geometry" />
        </mxCell>
        <mxCell id="G6ge_VEYu1JqmQReZd8N-21" value="199043" style="text;html=1;strokeColor=none;fillColor=none;align=center;verticalAlign=middle;whiteSpace=wrap;rounded=0;fontSize=16;" vertex="1" parent="G6ge_VEYu1JqmQReZd8N-19">
          <mxGeometry x="31.428571428571427" y="24.705882352941174" width="47.14285714285714" height="24.705882352941174" as="geometry" />
        </mxCell>
        <mxCell id="G6ge_VEYu1JqmQReZd8N-22" value="Techsol" style="text;html=1;strokeColor=none;fillColor=none;align=center;verticalAlign=middle;whiteSpace=wrap;rounded=0;fontSize=10;fontColor=#000099;" vertex="1" parent="G6ge_VEYu1JqmQReZd8N-19">
          <mxGeometry width="31.428571428571427" height="20.588235294117645" as="geometry" />
        </mxCell>
        <mxCell id="G6ge_VEYu1JqmQReZd8N-23" value="009" style="text;html=1;strokeColor=none;fillColor=none;align=center;verticalAlign=middle;whiteSpace=wrap;rounded=0;fontSize=10;fontColor=#FF0000;fontStyle=2" vertex="1" parent="G6ge_VEYu1JqmQReZd8N-19">
          <mxGeometry x="87" y="50" width="30" height="20" as="geometry" />
        </mxCell>
        <mxCell id="G6ge_VEYu1JqmQReZd8N-24" value="" style="group" vertex="1" connectable="0" parent="1">
          <mxGeometry x="970" y="710" width="130" height="70" as="geometry" />
        </mxCell>
        <mxCell id="G6ge_VEYu1JqmQReZd8N-25" value="" style="shape=card;whiteSpace=wrap;html=1;rotation=-90;size=20;" vertex="1" parent="G6ge_VEYu1JqmQReZd8N-24">
          <mxGeometry x="23.57142857142857" y="-20.588235294117645" width="62.857142857142854" height="115.29411764705881" as="geometry" />
        </mxCell>
        <mxCell id="G6ge_VEYu1JqmQReZd8N-26" value="199043" style="text;html=1;strokeColor=none;fillColor=none;align=center;verticalAlign=middle;whiteSpace=wrap;rounded=0;fontSize=16;" vertex="1" parent="G6ge_VEYu1JqmQReZd8N-24">
          <mxGeometry x="31.428571428571427" y="24.705882352941174" width="47.14285714285714" height="24.705882352941174" as="geometry" />
        </mxCell>
        <mxCell id="G6ge_VEYu1JqmQReZd8N-27" value="Techsol" style="text;html=1;strokeColor=none;fillColor=none;align=center;verticalAlign=middle;whiteSpace=wrap;rounded=0;fontSize=10;fontColor=#000099;" vertex="1" parent="G6ge_VEYu1JqmQReZd8N-24">
          <mxGeometry width="31.428571428571427" height="20.588235294117645" as="geometry" />
        </mxCell>
        <mxCell id="G6ge_VEYu1JqmQReZd8N-28" value="010" style="text;html=1;strokeColor=none;fillColor=none;align=center;verticalAlign=middle;whiteSpace=wrap;rounded=0;fontSize=10;fontColor=#FF0000;fontStyle=2" vertex="1" parent="G6ge_VEYu1JqmQReZd8N-24">
          <mxGeometry x="87" y="50" width="30" height="20" as="geometry" />
        </mxCell>
        <mxCell id="G6ge_VEYu1JqmQReZd8N-29" value="" style="group" vertex="1" connectable="0" parent="1">
          <mxGeometry x="80" y="50" width="130" height="70" as="geometry" />
        </mxCell>
        <mxCell id="G6ge_VEYu1JqmQReZd8N-30" value="" style="shape=card;whiteSpace=wrap;html=1;rotation=-90;size=20;" vertex="1" parent="G6ge_VEYu1JqmQReZd8N-29">
          <mxGeometry x="23.57142857142857" y="-20.588235294117645" width="62.857142857142854" height="115.29411764705881" as="geometry" />
        </mxCell>
        <mxCell id="G6ge_VEYu1JqmQReZd8N-31" value="199043" style="text;html=1;strokeColor=none;fillColor=none;align=center;verticalAlign=middle;whiteSpace=wrap;rounded=0;fontSize=16;" vertex="1" parent="G6ge_VEYu1JqmQReZd8N-29">
          <mxGeometry x="31.428571428571427" y="24.705882352941174" width="47.14285714285714" height="24.705882352941174" as="geometry" />
        </mxCell>
        <mxCell id="G6ge_VEYu1JqmQReZd8N-32" value="Techsol" style="text;html=1;strokeColor=none;fillColor=none;align=center;verticalAlign=middle;whiteSpace=wrap;rounded=0;fontSize=10;fontColor=#000099;" vertex="1" parent="G6ge_VEYu1JqmQReZd8N-29">
          <mxGeometry width="31.428571428571427" height="20.588235294117645" as="geometry" />
        </mxCell>
        <mxCell id="G6ge_VEYu1JqmQReZd8N-33" value="001" style="text;html=1;strokeColor=none;fillColor=none;align=center;verticalAlign=middle;whiteSpace=wrap;rounded=0;fontSize=10;fontColor=#FF0000;fontStyle=2" vertex="1" parent="G6ge_VEYu1JqmQReZd8N-29">
          <mxGeometry x="87" y="50" width="30" height="20" as="geometry" />
        </mxCell>
        <mxCell id="G6ge_VEYu1JqmQReZd8N-34" value="" style="group" vertex="1" connectable="0" parent="1">
          <mxGeometry x="80" y="280" width="130" height="70" as="geometry" />
        </mxCell>
        <mxCell id="G6ge_VEYu1JqmQReZd8N-35" value="" style="shape=card;whiteSpace=wrap;html=1;rotation=-90;size=20;" vertex="1" parent="G6ge_VEYu1JqmQReZd8N-34">
          <mxGeometry x="23.57142857142857" y="-20.588235294117645" width="62.857142857142854" height="115.29411764705881" as="geometry" />
        </mxCell>
        <mxCell id="G6ge_VEYu1JqmQReZd8N-36" value="199043" style="text;html=1;strokeColor=none;fillColor=none;align=center;verticalAlign=middle;whiteSpace=wrap;rounded=0;fontSize=16;" vertex="1" parent="G6ge_VEYu1JqmQReZd8N-34">
          <mxGeometry x="31.428571428571427" y="24.705882352941174" width="47.14285714285714" height="24.705882352941174" as="geometry" />
        </mxCell>
        <mxCell id="G6ge_VEYu1JqmQReZd8N-37" value="Techsol" style="text;html=1;strokeColor=none;fillColor=none;align=center;verticalAlign=middle;whiteSpace=wrap;rounded=0;fontSize=10;fontColor=#000099;" vertex="1" parent="G6ge_VEYu1JqmQReZd8N-34">
          <mxGeometry width="31.428571428571427" height="20.588235294117645" as="geometry" />
        </mxCell>
        <mxCell id="G6ge_VEYu1JqmQReZd8N-38" value="002" style="text;html=1;strokeColor=none;fillColor=none;align=center;verticalAlign=middle;whiteSpace=wrap;rounded=0;fontSize=10;fontColor=#FF0000;fontStyle=2" vertex="1" parent="G6ge_VEYu1JqmQReZd8N-34">
          <mxGeometry x="87" y="50" width="30" height="20" as="geometry" />
        </mxCell>
        <mxCell id="G6ge_VEYu1JqmQReZd8N-39" value="" style="group" vertex="1" connectable="0" parent="1">
          <mxGeometry x="80" y="470" width="130" height="70" as="geometry" />
        </mxCell>
        <mxCell id="G6ge_VEYu1JqmQReZd8N-40" value="" style="shape=card;whiteSpace=wrap;html=1;rotation=-90;size=20;" vertex="1" parent="G6ge_VEYu1JqmQReZd8N-39">
          <mxGeometry x="23.57142857142857" y="-20.588235294117645" width="62.857142857142854" height="115.29411764705881" as="geometry" />
        </mxCell>
        <mxCell id="G6ge_VEYu1JqmQReZd8N-41" value="199043" style="text;html=1;strokeColor=none;fillColor=none;align=center;verticalAlign=middle;whiteSpace=wrap;rounded=0;fontSize=16;" vertex="1" parent="G6ge_VEYu1JqmQReZd8N-39">
          <mxGeometry x="31.428571428571427" y="24.705882352941174" width="47.14285714285714" height="24.705882352941174" as="geometry" />
        </mxCell>
        <mxCell id="G6ge_VEYu1JqmQReZd8N-42" value="Techsol" style="text;html=1;strokeColor=none;fillColor=none;align=center;verticalAlign=middle;whiteSpace=wrap;rounded=0;fontSize=10;fontColor=#000099;" vertex="1" parent="G6ge_VEYu1JqmQReZd8N-39">
          <mxGeometry width="31.428571428571427" height="20.588235294117645" as="geometry" />
        </mxCell>
        <mxCell id="G6ge_VEYu1JqmQReZd8N-43" value="003" style="text;html=1;strokeColor=none;fillColor=none;align=center;verticalAlign=middle;whiteSpace=wrap;rounded=0;fontSize=10;fontColor=#FF0000;fontStyle=2" vertex="1" parent="G6ge_VEYu1JqmQReZd8N-39">
          <mxGeometry x="87" y="50" width="30" height="20" as="geometry" />
        </mxCell>
        <mxCell id="G6ge_VEYu1JqmQReZd8N-44" value="" style="group" vertex="1" connectable="0" parent="1">
          <mxGeometry x="80" y="700" width="130" height="70" as="geometry" />
        </mxCell>
        <mxCell id="G6ge_VEYu1JqmQReZd8N-45" value="" style="shape=card;whiteSpace=wrap;html=1;rotation=-90;size=20;" vertex="1" parent="G6ge_VEYu1JqmQReZd8N-44">
          <mxGeometry x="23.57142857142857" y="-20.588235294117645" width="62.857142857142854" height="115.29411764705881" as="geometry" />
        </mxCell>
        <mxCell id="G6ge_VEYu1JqmQReZd8N-46" value="199043" style="text;html=1;strokeColor=none;fillColor=none;align=center;verticalAlign=middle;whiteSpace=wrap;rounded=0;fontSize=16;" vertex="1" parent="G6ge_VEYu1JqmQReZd8N-44">
          <mxGeometry x="31.428571428571427" y="24.705882352941174" width="47.14285714285714" height="24.705882352941174" as="geometry" />
        </mxCell>
        <mxCell id="G6ge_VEYu1JqmQReZd8N-47" value="Techsol" style="text;html=1;strokeColor=none;fillColor=none;align=center;verticalAlign=middle;whiteSpace=wrap;rounded=0;fontSize=10;fontColor=#000099;" vertex="1" parent="G6ge_VEYu1JqmQReZd8N-44">
          <mxGeometry width="31.428571428571427" height="20.588235294117645" as="geometry" />
        </mxCell>
        <mxCell id="G6ge_VEYu1JqmQReZd8N-48" value="004" style="text;html=1;strokeColor=none;fillColor=none;align=center;verticalAlign=middle;whiteSpace=wrap;rounded=0;fontSize=10;fontColor=#FF0000;fontStyle=2" vertex="1" parent="G6ge_VEYu1JqmQReZd8N-44">
          <mxGeometry x="87" y="50" width="30" height="20" as="geometry" />
        </mxCell>
        <mxCell id="G6ge_VEYu1JqmQReZd8N-49" value="" style="group" vertex="1" connectable="0" parent="1">
          <mxGeometry x="520" y="50" width="130" height="70" as="geometry" />
        </mxCell>
        <mxCell id="G6ge_VEYu1JqmQReZd8N-50" value="" style="shape=card;whiteSpace=wrap;html=1;rotation=-90;size=20;" vertex="1" parent="G6ge_VEYu1JqmQReZd8N-49">
          <mxGeometry x="23.57142857142857" y="-20.588235294117645" width="62.857142857142854" height="115.29411764705881" as="geometry" />
        </mxCell>
        <mxCell id="G6ge_VEYu1JqmQReZd8N-51" value="199043" style="text;html=1;strokeColor=none;fillColor=none;align=center;verticalAlign=middle;whiteSpace=wrap;rounded=0;fontSize=16;" vertex="1" parent="G6ge_VEYu1JqmQReZd8N-49">
          <mxGeometry x="31.428571428571427" y="24.705882352941174" width="47.14285714285714" height="24.705882352941174" as="geometry" />
        </mxCell>
        <mxCell id="G6ge_VEYu1JqmQReZd8N-52" value="Techsol" style="text;html=1;strokeColor=none;fillColor=none;align=center;verticalAlign=middle;whiteSpace=wrap;rounded=0;fontSize=10;fontColor=#000099;" vertex="1" parent="G6ge_VEYu1JqmQReZd8N-49">
          <mxGeometry width="31.428571428571427" height="20.588235294117645" as="geometry" />
        </mxCell>
        <mxCell id="G6ge_VEYu1JqmQReZd8N-53" value="005" style="text;html=1;strokeColor=none;fillColor=none;align=center;verticalAlign=middle;whiteSpace=wrap;rounded=0;fontSize=10;fontColor=#FF0000;fontStyle=2" vertex="1" parent="G6ge_VEYu1JqmQReZd8N-49">
          <mxGeometry x="87" y="50" width="30" height="20" as="geometry" />
        </mxCell>
        <mxCell id="G6ge_VEYu1JqmQReZd8N-54" value="" style="group" vertex="1" connectable="0" parent="1">
          <mxGeometry x="520" y="720" width="130" height="70" as="geometry" />
        </mxCell>
        <mxCell id="G6ge_VEYu1JqmQReZd8N-55" value="" style="shape=card;whiteSpace=wrap;html=1;rotation=-90;size=20;" vertex="1" parent="G6ge_VEYu1JqmQReZd8N-54">
          <mxGeometry x="23.57142857142857" y="-20.588235294117645" width="62.857142857142854" height="115.29411764705881" as="geometry" />
        </mxCell>
        <mxCell id="G6ge_VEYu1JqmQReZd8N-56" value="199043" style="text;html=1;strokeColor=none;fillColor=none;align=center;verticalAlign=middle;whiteSpace=wrap;rounded=0;fontSize=16;" vertex="1" parent="G6ge_VEYu1JqmQReZd8N-54">
          <mxGeometry x="31.428571428571427" y="24.705882352941174" width="47.14285714285714" height="24.705882352941174" as="geometry" />
        </mxCell>
        <mxCell id="G6ge_VEYu1JqmQReZd8N-57" value="Techsol" style="text;html=1;strokeColor=none;fillColor=none;align=center;verticalAlign=middle;whiteSpace=wrap;rounded=0;fontSize=10;fontColor=#000099;" vertex="1" parent="G6ge_VEYu1JqmQReZd8N-54">
          <mxGeometry width="31.428571428571427" height="20.588235294117645" as="geometry" />
        </mxCell>
        <mxCell id="G6ge_VEYu1JqmQReZd8N-58" value="006" style="text;html=1;strokeColor=none;fillColor=none;align=center;verticalAlign=middle;whiteSpace=wrap;rounded=0;fontSize=10;fontColor=#FF0000;fontStyle=2" vertex="1" parent="G6ge_VEYu1JqmQReZd8N-54">
          <mxGeometry x="87" y="50" width="30" height="20" as="geometry" />
        </mxCell>
        <mxCell id="G6ge_VEYu1JqmQReZd8N-64" value="" style="endArrow=classic;html=1;rounded=0;fontSize=10;fontColor=#FF0000;exitX=0;exitY=0;exitDx=20;exitDy=0;exitPerimeter=0;" edge="1" parent="1" source="G6ge_VEYu1JqmQReZd8N-10" target="G6ge_VEYu1JqmQReZd8N-59">
          <mxGeometry width="50" height="50" relative="1" as="geometry">
            <mxPoint x="610" y="400" as="sourcePoint" />
            <mxPoint x="660" y="350" as="targetPoint" />
          </mxGeometry>
        </mxCell>
        <mxCell id="G6ge_VEYu1JqmQReZd8N-65" value="" style="endArrow=classic;html=1;rounded=0;fontSize=10;fontColor=#FF0000;exitX=0;exitY=0;exitDx=41.42857142857143;exitDy=0;entryX=1;entryY=0.44;entryDx=0;entryDy=0;entryPerimeter=0;exitPerimeter=0;" edge="1" parent="1" source="G6ge_VEYu1JqmQReZd8N-15" target="G6ge_VEYu1JqmQReZd8N-59">
          <mxGeometry width="50" height="50" relative="1" as="geometry">
            <mxPoint x="977.3529411764703" y="108.48739495798327" as="sourcePoint" />
            <mxPoint x="676.0098072736923" y="356.6987191329499" as="targetPoint" />
          </mxGeometry>
        </mxCell>
        <mxCell id="G6ge_VEYu1JqmQReZd8N-66" value="" style="endArrow=classic;html=1;rounded=0;fontSize=10;fontColor=#FF0000;exitX=0;exitY=0;exitDx=41.42857142857143;exitDy=0;entryX=0.976;entryY=0.65;entryDx=0;entryDy=0;entryPerimeter=0;exitPerimeter=0;" edge="1" parent="1" source="G6ge_VEYu1JqmQReZd8N-20" target="G6ge_VEYu1JqmQReZd8N-59">
          <mxGeometry width="50" height="50" relative="1" as="geometry">
            <mxPoint x="980" y="315.4411764705883" as="sourcePoint" />
            <mxPoint x="700" y="410.9000000000001" as="targetPoint" />
          </mxGeometry>
        </mxCell>
        <mxCell id="G6ge_VEYu1JqmQReZd8N-68" value="" style="endArrow=classic;html=1;rounded=0;fontSize=10;fontColor=#FF0000;exitX=0;exitY=0;exitDx=41.42857142857143;exitDy=0;entryX=1;entryY=1;entryDx=0;entryDy=0;exitPerimeter=0;" edge="1" parent="1" source="G6ge_VEYu1JqmQReZd8N-25" target="G6ge_VEYu1JqmQReZd8N-59">
          <mxGeometry width="50" height="50" relative="1" as="geometry">
            <mxPoint x="980" y="495.1470588235295" as="sourcePoint" />
            <mxPoint x="694.96" y="455" as="targetPoint" />
          </mxGeometry>
        </mxCell>
        <mxCell id="G6ge_VEYu1JqmQReZd8N-69" value="" style="endArrow=classic;html=1;rounded=0;fontSize=10;fontColor=#FF0000;exitX=1;exitY=0.5;exitDx=0;exitDy=0;entryX=0.5;entryY=1;entryDx=0;entryDy=0;exitPerimeter=0;" edge="1" parent="1" source="G6ge_VEYu1JqmQReZd8N-55" target="G6ge_VEYu1JqmQReZd8N-59">
          <mxGeometry width="50" height="50" relative="1" as="geometry">
            <mxPoint x="980" y="725.1470588235295" as="sourcePoint" />
            <mxPoint x="669.2462120245873" y="497.7462120245873" as="targetPoint" />
          </mxGeometry>
        </mxCell>
        <mxCell id="G6ge_VEYu1JqmQReZd8N-70" value="" style="endArrow=classic;html=1;rounded=0;fontSize=10;fontColor=#FF0000;exitX=1;exitY=1;exitDx=0;exitDy=0;entryX=0;entryY=1;entryDx=0;entryDy=0;exitPerimeter=0;" edge="1" parent="1" source="G6ge_VEYu1JqmQReZd8N-45" target="G6ge_VEYu1JqmQReZd8N-59">
          <mxGeometry width="50" height="50" relative="1" as="geometry">
            <mxPoint x="584.9999999999998" y="735.6302521008404" as="sourcePoint" />
            <mxPoint x="595" y="528.5" as="targetPoint" />
          </mxGeometry>
        </mxCell>
        <mxCell id="G6ge_VEYu1JqmQReZd8N-71" value="" style="endArrow=classic;html=1;rounded=0;fontSize=10;fontColor=#FF0000;exitX=0.5;exitY=1;exitDx=0;exitDy=0;entryX=0.005;entryY=0.612;entryDx=0;entryDy=0;exitPerimeter=0;entryPerimeter=0;" edge="1" parent="1" source="G6ge_VEYu1JqmQReZd8N-40" target="G6ge_VEYu1JqmQReZd8N-59">
          <mxGeometry width="50" height="50" relative="1" as="geometry">
            <mxPoint x="162.64705882352928" y="715.6302521008406" as="sourcePoint" />
            <mxPoint x="520.7537879754125" y="497.7462120245875" as="targetPoint" />
          </mxGeometry>
        </mxCell>
        <mxCell id="G6ge_VEYu1JqmQReZd8N-72" value="" style="endArrow=classic;html=1;rounded=0;fontSize=10;fontColor=#FF0000;exitX=0.5;exitY=1;exitDx=0;exitDy=0;entryX=0.029;entryY=0.34;entryDx=0;entryDy=0;exitPerimeter=0;entryPerimeter=0;" edge="1" parent="1" source="G6ge_VEYu1JqmQReZd8N-35" target="G6ge_VEYu1JqmQReZd8N-59">
          <mxGeometry width="50" height="50" relative="1" as="geometry">
            <mxPoint x="162.64705882352928" y="517.0588235294119" as="sourcePoint" />
            <mxPoint x="491.04999999999995" y="447.02" as="targetPoint" />
          </mxGeometry>
        </mxCell>
        <mxCell id="G6ge_VEYu1JqmQReZd8N-73" value="" style="endArrow=classic;html=1;rounded=0;fontSize=10;fontColor=#FF0000;entryX=0;entryY=0;entryDx=0;entryDy=0;" edge="1" parent="1">
          <mxGeometry width="50" height="50" relative="1" as="geometry">
            <mxPoint x="190" y="120" as="sourcePoint" />
            <mxPoint x="510.7537879754125" y="337.2537879754125" as="targetPoint" />
          </mxGeometry>
        </mxCell>
        <mxCell id="G6ge_VEYu1JqmQReZd8N-74" value="" style="endArrow=classic;html=1;rounded=0;fontSize=10;fontColor=#FF0000;exitX=0;exitY=0;exitDx=0;exitDy=20;entryX=0.5;entryY=0;entryDx=0;entryDy=0;exitPerimeter=0;" edge="1" parent="1" source="G6ge_VEYu1JqmQReZd8N-50" target="G6ge_VEYu1JqmQReZd8N-59">
          <mxGeometry width="50" height="50" relative="1" as="geometry">
            <mxPoint x="159.5" y="120" as="sourcePoint" />
            <mxPoint x="520.7537879754125" y="349.2537879754125" as="targetPoint" />
          </mxGeometry>
        </mxCell>
        <mxCell id="G6ge_VEYu1JqmQReZd8N-81" value="" style="group" vertex="1" connectable="0" parent="1">
          <mxGeometry x="480" y="910" width="125" height="95" as="geometry" />
        </mxCell>
        <mxCell id="G6ge_VEYu1JqmQReZd8N-76" value="" style="triangle;whiteSpace=wrap;html=1;fontSize=10;fontColor=#FF0000;rotation=-90;" vertex="1" parent="G6ge_VEYu1JqmQReZd8N-81">
          <mxGeometry x="65" y="30" width="60" height="10" as="geometry" />
        </mxCell>
        <mxCell id="G6ge_VEYu1JqmQReZd8N-77" value="" style="shape=cube;whiteSpace=wrap;html=1;boundedLbl=1;backgroundOutline=1;darkOpacity=0.05;darkOpacity2=0.1;fontSize=10;fontColor=#FF0000;" vertex="1" parent="G6ge_VEYu1JqmQReZd8N-81">
          <mxGeometry y="60" width="120" height="30" as="geometry" />
        </mxCell>
        <mxCell id="G6ge_VEYu1JqmQReZd8N-80" value="" style="triangle;whiteSpace=wrap;html=1;fontSize=10;fontColor=#FF0000;rotation=-90;" vertex="1" parent="G6ge_VEYu1JqmQReZd8N-81">
          <mxGeometry x="-25" y="25" width="60" height="10" as="geometry" />
        </mxCell>
        <mxCell id="G6ge_VEYu1JqmQReZd8N-82" value="Techsol" style="text;html=1;strokeColor=none;fillColor=none;align=center;verticalAlign=middle;whiteSpace=wrap;rounded=0;fontSize=8;fontColor=#000099;fontStyle=1" vertex="1" parent="G6ge_VEYu1JqmQReZd8N-81">
          <mxGeometry x="24.29" y="74.41000000000003" width="31.428571428571427" height="20.588235294117645" as="geometry" />
        </mxCell>
        <mxCell id="G6ge_VEYu1JqmQReZd8N-83" value="005" style="text;html=1;strokeColor=none;fillColor=none;align=center;verticalAlign=middle;whiteSpace=wrap;rounded=0;fontSize=8;fontColor=#FF0000;fontStyle=3" vertex="1" parent="G6ge_VEYu1JqmQReZd8N-81">
          <mxGeometry x="94" y="75" width="30" height="20" as="geometry" />
        </mxCell>
        <mxCell id="G6ge_VEYu1JqmQReZd8N-84" value="" style="group" vertex="1" connectable="0" parent="1">
          <mxGeometry x="495" y="1201" width="175" height="147.5" as="geometry" />
        </mxCell>
        <mxCell id="G6ge_VEYu1JqmQReZd8N-85" value="" style="ellipse;whiteSpace=wrap;html=1;aspect=fixed;fontSize=10;fontColor=#FF0000;" vertex="1" parent="G6ge_VEYu1JqmQReZd8N-84">
          <mxGeometry x="-35" y="-62.5" width="210" height="210" as="geometry" />
        </mxCell>
        <mxCell id="G6ge_VEYu1JqmQReZd8N-86" value="" style="shape=card;whiteSpace=wrap;html=1;rotation=-90;size=20;" vertex="1" parent="G6ge_VEYu1JqmQReZd8N-84">
          <mxGeometry x="30" y="-25" width="80" height="140" as="geometry" />
        </mxCell>
        <mxCell id="G6ge_VEYu1JqmQReZd8N-87" value="199043" style="text;html=1;strokeColor=none;fillColor=none;align=center;verticalAlign=middle;whiteSpace=wrap;rounded=0;fontSize=16;" vertex="1" parent="G6ge_VEYu1JqmQReZd8N-84">
          <mxGeometry x="40" y="30" width="60" height="30" as="geometry" />
        </mxCell>
        <mxCell id="G6ge_VEYu1JqmQReZd8N-88" value="Techsol" style="text;html=1;strokeColor=none;fillColor=none;align=center;verticalAlign=middle;whiteSpace=wrap;rounded=0;fontSize=10;fontColor=#000099;" vertex="1" parent="G6ge_VEYu1JqmQReZd8N-84">
          <mxGeometry width="40" height="25" as="geometry" />
        </mxCell>
        <mxCell id="G6ge_VEYu1JqmQReZd8N-139" value="" style="endArrow=classic;html=1;rounded=0;fontSize=10;fontColor=#FF0000;exitX=0;exitY=0;exitDx=10;exitDy=20;exitPerimeter=0;" edge="1" source="G6ge_VEYu1JqmQReZd8N-199" target="G6ge_VEYu1JqmQReZd8N-85" parent="1">
          <mxGeometry width="50" height="50" relative="1" as="geometry">
            <mxPoint x="947.3529411764703" y="928.4873949579833" as="sourcePoint" />
            <mxPoint x="640" y="1180" as="targetPoint" />
          </mxGeometry>
        </mxCell>
        <mxCell id="G6ge_VEYu1JqmQReZd8N-140" value="" style="endArrow=classic;html=1;rounded=0;fontSize=10;fontColor=#FF0000;exitX=0;exitY=0;exitDx=10;exitDy=20;entryX=1;entryY=0.44;entryDx=0;entryDy=0;entryPerimeter=0;exitPerimeter=0;" edge="1" source="G6ge_VEYu1JqmQReZd8N-193" target="G6ge_VEYu1JqmQReZd8N-85" parent="1">
          <mxGeometry width="50" height="50" relative="1" as="geometry">
            <mxPoint x="947.3529411764705" y="1147.0588235294117" as="sourcePoint" />
            <mxPoint x="656.0098072736923" y="1186.69871913295" as="targetPoint" />
          </mxGeometry>
        </mxCell>
        <mxCell id="G6ge_VEYu1JqmQReZd8N-141" value="" style="endArrow=classic;html=1;rounded=0;fontSize=10;fontColor=#FF0000;exitX=0;exitY=0;exitDx=0;exitDy=10;entryX=0.976;entryY=0.65;entryDx=0;entryDy=0;entryPerimeter=0;exitPerimeter=0;" edge="1" source="G6ge_VEYu1JqmQReZd8N-187" target="G6ge_VEYu1JqmQReZd8N-85" parent="1">
          <mxGeometry width="50" height="50" relative="1" as="geometry">
            <mxPoint x="947.3529411764705" y="1337.0588235294117" as="sourcePoint" />
            <mxPoint x="680" y="1240.9" as="targetPoint" />
          </mxGeometry>
        </mxCell>
        <mxCell id="G6ge_VEYu1JqmQReZd8N-142" value="" style="endArrow=classic;html=1;rounded=0;fontSize=10;fontColor=#FF0000;exitX=0;exitY=0;exitDx=10;exitDy=20;entryX=1;entryY=1;entryDx=0;entryDy=0;exitPerimeter=0;" edge="1" source="G6ge_VEYu1JqmQReZd8N-181" target="G6ge_VEYu1JqmQReZd8N-85" parent="1">
          <mxGeometry width="50" height="50" relative="1" as="geometry">
            <mxPoint x="947.3529411764705" y="1567.0588235294117" as="sourcePoint" />
            <mxPoint x="674.96" y="1285" as="targetPoint" />
          </mxGeometry>
        </mxCell>
        <mxCell id="G6ge_VEYu1JqmQReZd8N-143" value="" style="endArrow=classic;html=1;rounded=0;fontSize=10;fontColor=#FF0000;exitX=1;exitY=0.5;exitDx=0;exitDy=0;entryX=0.5;entryY=1;entryDx=0;entryDy=0;exitPerimeter=0;" edge="1" target="G6ge_VEYu1JqmQReZd8N-85" parent="1">
          <mxGeometry width="50" height="50" relative="1" as="geometry">
            <mxPoint x="554.9999999999998" y="1555.6302521008402" as="sourcePoint" />
            <mxPoint x="649.2462120245873" y="1327.7462120245873" as="targetPoint" />
          </mxGeometry>
        </mxCell>
        <mxCell id="G6ge_VEYu1JqmQReZd8N-144" value="" style="endArrow=classic;html=1;rounded=0;fontSize=10;fontColor=#FF0000;exitX=0;exitY=0;exitDx=110;exitDy=10;entryX=0;entryY=1;entryDx=0;entryDy=0;exitPerimeter=0;" edge="1" source="G6ge_VEYu1JqmQReZd8N-169" target="G6ge_VEYu1JqmQReZd8N-85" parent="1">
          <mxGeometry width="50" height="50" relative="1" as="geometry">
            <mxPoint x="172.64705882352973" y="1535.6302521008406" as="sourcePoint" />
            <mxPoint x="575" y="1358.5" as="targetPoint" />
          </mxGeometry>
        </mxCell>
        <mxCell id="G6ge_VEYu1JqmQReZd8N-145" value="" style="endArrow=classic;html=1;rounded=0;fontSize=10;fontColor=#FF0000;exitX=0;exitY=0;exitDx=110;exitDy=10;entryX=0.005;entryY=0.612;entryDx=0;entryDy=0;exitPerimeter=0;entryPerimeter=0;" edge="1" source="G6ge_VEYu1JqmQReZd8N-163" target="G6ge_VEYu1JqmQReZd8N-85" parent="1">
          <mxGeometry width="50" height="50" relative="1" as="geometry">
            <mxPoint x="172.64705882352973" y="1337.0588235294117" as="sourcePoint" />
            <mxPoint x="500.7537879754125" y="1327.7462120245875" as="targetPoint" />
          </mxGeometry>
        </mxCell>
        <mxCell id="G6ge_VEYu1JqmQReZd8N-146" value="" style="endArrow=classic;html=1;rounded=0;fontSize=10;fontColor=#FF0000;exitX=0;exitY=0;exitDx=110;exitDy=10;entryX=0.029;entryY=0.34;entryDx=0;entryDy=0;exitPerimeter=0;entryPerimeter=0;" edge="1" source="G6ge_VEYu1JqmQReZd8N-157" target="G6ge_VEYu1JqmQReZd8N-85" parent="1">
          <mxGeometry width="50" height="50" relative="1" as="geometry">
            <mxPoint x="172.64705882352973" y="1147.0588235294117" as="sourcePoint" />
            <mxPoint x="471.04999999999995" y="1277.02" as="targetPoint" />
          </mxGeometry>
        </mxCell>
        <mxCell id="G6ge_VEYu1JqmQReZd8N-147" value="" style="endArrow=classic;html=1;rounded=0;fontSize=10;fontColor=#FF0000;entryX=0;entryY=0;entryDx=0;entryDy=0;exitX=0;exitY=0;exitDx=70;exitDy=30;exitPerimeter=0;" edge="1" parent="1" source="G6ge_VEYu1JqmQReZd8N-151">
          <mxGeometry width="50" height="50" relative="1" as="geometry">
            <mxPoint x="270" y="1020" as="sourcePoint" />
            <mxPoint x="490.7537879754125" y="1167.2537879754125" as="targetPoint" />
          </mxGeometry>
        </mxCell>
        <mxCell id="G6ge_VEYu1JqmQReZd8N-148" value="" style="endArrow=classic;html=1;rounded=0;fontSize=10;fontColor=#FF0000;exitX=0;exitY=0;exitDx=70;exitDy=30;entryX=0.5;entryY=0;entryDx=0;entryDy=0;exitPerimeter=0;" edge="1" source="G6ge_VEYu1JqmQReZd8N-77" target="G6ge_VEYu1JqmQReZd8N-85" parent="1">
          <mxGeometry width="50" height="50" relative="1" as="geometry">
            <mxPoint x="517.3529411764703" y="948.4873949579833" as="sourcePoint" />
            <mxPoint x="500.7537879754125" y="1179.2537879754125" as="targetPoint" />
          </mxGeometry>
        </mxCell>
        <mxCell id="G6ge_VEYu1JqmQReZd8N-149" value="" style="group" vertex="1" connectable="0" parent="1">
          <mxGeometry x="120" y="910" width="125" height="95" as="geometry" />
        </mxCell>
        <mxCell id="G6ge_VEYu1JqmQReZd8N-150" value="" style="triangle;whiteSpace=wrap;html=1;fontSize=10;fontColor=#FF0000;rotation=-90;" vertex="1" parent="G6ge_VEYu1JqmQReZd8N-149">
          <mxGeometry x="65" y="30" width="60" height="10" as="geometry" />
        </mxCell>
        <mxCell id="G6ge_VEYu1JqmQReZd8N-151" value="" style="shape=cube;whiteSpace=wrap;html=1;boundedLbl=1;backgroundOutline=1;darkOpacity=0.05;darkOpacity2=0.1;fontSize=10;fontColor=#FF0000;" vertex="1" parent="G6ge_VEYu1JqmQReZd8N-149">
          <mxGeometry y="60" width="120" height="30" as="geometry" />
        </mxCell>
        <mxCell id="G6ge_VEYu1JqmQReZd8N-152" value="" style="triangle;whiteSpace=wrap;html=1;fontSize=10;fontColor=#FF0000;rotation=-90;" vertex="1" parent="G6ge_VEYu1JqmQReZd8N-149">
          <mxGeometry x="-25" y="25" width="60" height="10" as="geometry" />
        </mxCell>
        <mxCell id="G6ge_VEYu1JqmQReZd8N-153" value="Techsol" style="text;html=1;strokeColor=none;fillColor=none;align=center;verticalAlign=middle;whiteSpace=wrap;rounded=0;fontSize=8;fontColor=#000099;fontStyle=1" vertex="1" parent="G6ge_VEYu1JqmQReZd8N-149">
          <mxGeometry x="24.29" y="74.41000000000003" width="31.428571428571427" height="20.588235294117645" as="geometry" />
        </mxCell>
        <mxCell id="G6ge_VEYu1JqmQReZd8N-154" value="001" style="text;html=1;strokeColor=none;fillColor=none;align=center;verticalAlign=middle;whiteSpace=wrap;rounded=0;fontSize=8;fontColor=#FF0000;fontStyle=3" vertex="1" parent="G6ge_VEYu1JqmQReZd8N-149">
          <mxGeometry x="94" y="75" width="30" height="20" as="geometry" />
        </mxCell>
        <mxCell id="G6ge_VEYu1JqmQReZd8N-155" value="" style="group" vertex="1" connectable="0" parent="1">
          <mxGeometry x="120" y="1090" width="125" height="95" as="geometry" />
        </mxCell>
        <mxCell id="G6ge_VEYu1JqmQReZd8N-156" value="" style="triangle;whiteSpace=wrap;html=1;fontSize=10;fontColor=#FF0000;rotation=-90;" vertex="1" parent="G6ge_VEYu1JqmQReZd8N-155">
          <mxGeometry x="65" y="30" width="60" height="10" as="geometry" />
        </mxCell>
        <mxCell id="G6ge_VEYu1JqmQReZd8N-157" value="" style="shape=cube;whiteSpace=wrap;html=1;boundedLbl=1;backgroundOutline=1;darkOpacity=0.05;darkOpacity2=0.1;fontSize=10;fontColor=#FF0000;" vertex="1" parent="G6ge_VEYu1JqmQReZd8N-155">
          <mxGeometry y="60" width="120" height="30" as="geometry" />
        </mxCell>
        <mxCell id="G6ge_VEYu1JqmQReZd8N-158" value="" style="triangle;whiteSpace=wrap;html=1;fontSize=10;fontColor=#FF0000;rotation=-90;" vertex="1" parent="G6ge_VEYu1JqmQReZd8N-155">
          <mxGeometry x="-25" y="25" width="60" height="10" as="geometry" />
        </mxCell>
        <mxCell id="G6ge_VEYu1JqmQReZd8N-159" value="Techsol" style="text;html=1;strokeColor=none;fillColor=none;align=center;verticalAlign=middle;whiteSpace=wrap;rounded=0;fontSize=8;fontColor=#000099;fontStyle=1" vertex="1" parent="G6ge_VEYu1JqmQReZd8N-155">
          <mxGeometry x="24.29" y="74.41000000000003" width="31.428571428571427" height="20.588235294117645" as="geometry" />
        </mxCell>
        <mxCell id="G6ge_VEYu1JqmQReZd8N-160" value="002" style="text;html=1;strokeColor=none;fillColor=none;align=center;verticalAlign=middle;whiteSpace=wrap;rounded=0;fontSize=8;fontColor=#FF0000;fontStyle=3" vertex="1" parent="G6ge_VEYu1JqmQReZd8N-155">
          <mxGeometry x="94" y="75" width="30" height="20" as="geometry" />
        </mxCell>
        <mxCell id="G6ge_VEYu1JqmQReZd8N-161" value="" style="group" vertex="1" connectable="0" parent="1">
          <mxGeometry x="120" y="1270" width="125" height="95" as="geometry" />
        </mxCell>
        <mxCell id="G6ge_VEYu1JqmQReZd8N-162" value="" style="triangle;whiteSpace=wrap;html=1;fontSize=10;fontColor=#FF0000;rotation=-90;" vertex="1" parent="G6ge_VEYu1JqmQReZd8N-161">
          <mxGeometry x="65" y="30" width="60" height="10" as="geometry" />
        </mxCell>
        <mxCell id="G6ge_VEYu1JqmQReZd8N-163" value="" style="shape=cube;whiteSpace=wrap;html=1;boundedLbl=1;backgroundOutline=1;darkOpacity=0.05;darkOpacity2=0.1;fontSize=10;fontColor=#FF0000;" vertex="1" parent="G6ge_VEYu1JqmQReZd8N-161">
          <mxGeometry y="60" width="120" height="30" as="geometry" />
        </mxCell>
        <mxCell id="G6ge_VEYu1JqmQReZd8N-164" value="" style="triangle;whiteSpace=wrap;html=1;fontSize=10;fontColor=#FF0000;rotation=-90;" vertex="1" parent="G6ge_VEYu1JqmQReZd8N-161">
          <mxGeometry x="-25" y="25" width="60" height="10" as="geometry" />
        </mxCell>
        <mxCell id="G6ge_VEYu1JqmQReZd8N-165" value="Techsol" style="text;html=1;strokeColor=none;fillColor=none;align=center;verticalAlign=middle;whiteSpace=wrap;rounded=0;fontSize=8;fontColor=#000099;fontStyle=1" vertex="1" parent="G6ge_VEYu1JqmQReZd8N-161">
          <mxGeometry x="24.29" y="74.41000000000003" width="31.428571428571427" height="20.588235294117645" as="geometry" />
        </mxCell>
        <mxCell id="G6ge_VEYu1JqmQReZd8N-166" value="003" style="text;html=1;strokeColor=none;fillColor=none;align=center;verticalAlign=middle;whiteSpace=wrap;rounded=0;fontSize=8;fontColor=#FF0000;fontStyle=3" vertex="1" parent="G6ge_VEYu1JqmQReZd8N-161">
          <mxGeometry x="94" y="75" width="30" height="20" as="geometry" />
        </mxCell>
        <mxCell id="G6ge_VEYu1JqmQReZd8N-167" value="" style="group" vertex="1" connectable="0" parent="1">
          <mxGeometry x="120" y="1470" width="125" height="95" as="geometry" />
        </mxCell>
        <mxCell id="G6ge_VEYu1JqmQReZd8N-168" value="" style="triangle;whiteSpace=wrap;html=1;fontSize=10;fontColor=#FF0000;rotation=-90;" vertex="1" parent="G6ge_VEYu1JqmQReZd8N-167">
          <mxGeometry x="65" y="30" width="60" height="10" as="geometry" />
        </mxCell>
        <mxCell id="G6ge_VEYu1JqmQReZd8N-169" value="" style="shape=cube;whiteSpace=wrap;html=1;boundedLbl=1;backgroundOutline=1;darkOpacity=0.05;darkOpacity2=0.1;fontSize=10;fontColor=#FF0000;" vertex="1" parent="G6ge_VEYu1JqmQReZd8N-167">
          <mxGeometry y="60" width="120" height="30" as="geometry" />
        </mxCell>
        <mxCell id="G6ge_VEYu1JqmQReZd8N-170" value="" style="triangle;whiteSpace=wrap;html=1;fontSize=10;fontColor=#FF0000;rotation=-90;" vertex="1" parent="G6ge_VEYu1JqmQReZd8N-167">
          <mxGeometry x="-25" y="25" width="60" height="10" as="geometry" />
        </mxCell>
        <mxCell id="G6ge_VEYu1JqmQReZd8N-171" value="Techsol" style="text;html=1;strokeColor=none;fillColor=none;align=center;verticalAlign=middle;whiteSpace=wrap;rounded=0;fontSize=8;fontColor=#000099;fontStyle=1" vertex="1" parent="G6ge_VEYu1JqmQReZd8N-167">
          <mxGeometry x="24.29" y="74.41000000000003" width="31.428571428571427" height="20.588235294117645" as="geometry" />
        </mxCell>
        <mxCell id="G6ge_VEYu1JqmQReZd8N-172" value="004" style="text;html=1;strokeColor=none;fillColor=none;align=center;verticalAlign=middle;whiteSpace=wrap;rounded=0;fontSize=8;fontColor=#FF0000;fontStyle=3" vertex="1" parent="G6ge_VEYu1JqmQReZd8N-167">
          <mxGeometry x="94" y="75" width="30" height="20" as="geometry" />
        </mxCell>
        <mxCell id="G6ge_VEYu1JqmQReZd8N-173" value="" style="group" vertex="1" connectable="0" parent="1">
          <mxGeometry x="500" y="1480" width="125" height="95" as="geometry" />
        </mxCell>
        <mxCell id="G6ge_VEYu1JqmQReZd8N-174" value="" style="triangle;whiteSpace=wrap;html=1;fontSize=10;fontColor=#FF0000;rotation=-90;" vertex="1" parent="G6ge_VEYu1JqmQReZd8N-173">
          <mxGeometry x="65" y="30" width="60" height="10" as="geometry" />
        </mxCell>
        <mxCell id="G6ge_VEYu1JqmQReZd8N-175" value="" style="shape=cube;whiteSpace=wrap;html=1;boundedLbl=1;backgroundOutline=1;darkOpacity=0.05;darkOpacity2=0.1;fontSize=10;fontColor=#FF0000;" vertex="1" parent="G6ge_VEYu1JqmQReZd8N-173">
          <mxGeometry y="60" width="120" height="30" as="geometry" />
        </mxCell>
        <mxCell id="G6ge_VEYu1JqmQReZd8N-176" value="" style="triangle;whiteSpace=wrap;html=1;fontSize=10;fontColor=#FF0000;rotation=-90;" vertex="1" parent="G6ge_VEYu1JqmQReZd8N-173">
          <mxGeometry x="-25" y="25" width="60" height="10" as="geometry" />
        </mxCell>
        <mxCell id="G6ge_VEYu1JqmQReZd8N-177" value="Techsol" style="text;html=1;strokeColor=none;fillColor=none;align=center;verticalAlign=middle;whiteSpace=wrap;rounded=0;fontSize=8;fontColor=#000099;fontStyle=1" vertex="1" parent="G6ge_VEYu1JqmQReZd8N-173">
          <mxGeometry x="24.29" y="74.41000000000003" width="31.428571428571427" height="20.588235294117645" as="geometry" />
        </mxCell>
        <mxCell id="G6ge_VEYu1JqmQReZd8N-178" value="006" style="text;html=1;strokeColor=none;fillColor=none;align=center;verticalAlign=middle;whiteSpace=wrap;rounded=0;fontSize=8;fontColor=#FF0000;fontStyle=3" vertex="1" parent="G6ge_VEYu1JqmQReZd8N-173">
          <mxGeometry x="94" y="75" width="30" height="20" as="geometry" />
        </mxCell>
        <mxCell id="G6ge_VEYu1JqmQReZd8N-179" value="" style="group" vertex="1" connectable="0" parent="1">
          <mxGeometry x="960" y="1490" width="125" height="95" as="geometry" />
        </mxCell>
        <mxCell id="G6ge_VEYu1JqmQReZd8N-180" value="" style="triangle;whiteSpace=wrap;html=1;fontSize=10;fontColor=#FF0000;rotation=-90;" vertex="1" parent="G6ge_VEYu1JqmQReZd8N-179">
          <mxGeometry x="65" y="30" width="60" height="10" as="geometry" />
        </mxCell>
        <mxCell id="G6ge_VEYu1JqmQReZd8N-181" value="" style="shape=cube;whiteSpace=wrap;html=1;boundedLbl=1;backgroundOutline=1;darkOpacity=0.05;darkOpacity2=0.1;fontSize=10;fontColor=#FF0000;" vertex="1" parent="G6ge_VEYu1JqmQReZd8N-179">
          <mxGeometry y="60" width="120" height="30" as="geometry" />
        </mxCell>
        <mxCell id="G6ge_VEYu1JqmQReZd8N-182" value="" style="triangle;whiteSpace=wrap;html=1;fontSize=10;fontColor=#FF0000;rotation=-90;" vertex="1" parent="G6ge_VEYu1JqmQReZd8N-179">
          <mxGeometry x="-25" y="25" width="60" height="10" as="geometry" />
        </mxCell>
        <mxCell id="G6ge_VEYu1JqmQReZd8N-183" value="Techsol" style="text;html=1;strokeColor=none;fillColor=none;align=center;verticalAlign=middle;whiteSpace=wrap;rounded=0;fontSize=8;fontColor=#000099;fontStyle=1" vertex="1" parent="G6ge_VEYu1JqmQReZd8N-179">
          <mxGeometry x="24.29" y="74.41000000000003" width="31.428571428571427" height="20.588235294117645" as="geometry" />
        </mxCell>
        <mxCell id="G6ge_VEYu1JqmQReZd8N-184" value="010" style="text;html=1;strokeColor=none;fillColor=none;align=center;verticalAlign=middle;whiteSpace=wrap;rounded=0;fontSize=8;fontColor=#FF0000;fontStyle=3" vertex="1" parent="G6ge_VEYu1JqmQReZd8N-179">
          <mxGeometry x="94" y="75" width="30" height="20" as="geometry" />
        </mxCell>
        <mxCell id="G6ge_VEYu1JqmQReZd8N-185" value="" style="group" vertex="1" connectable="0" parent="1">
          <mxGeometry x="960" y="1280" width="125" height="95" as="geometry" />
        </mxCell>
        <mxCell id="G6ge_VEYu1JqmQReZd8N-186" value="" style="triangle;whiteSpace=wrap;html=1;fontSize=10;fontColor=#FF0000;rotation=-90;" vertex="1" parent="G6ge_VEYu1JqmQReZd8N-185">
          <mxGeometry x="65" y="30" width="60" height="10" as="geometry" />
        </mxCell>
        <mxCell id="G6ge_VEYu1JqmQReZd8N-187" value="" style="shape=cube;whiteSpace=wrap;html=1;boundedLbl=1;backgroundOutline=1;darkOpacity=0.05;darkOpacity2=0.1;fontSize=10;fontColor=#FF0000;" vertex="1" parent="G6ge_VEYu1JqmQReZd8N-185">
          <mxGeometry y="60" width="120" height="30" as="geometry" />
        </mxCell>
        <mxCell id="G6ge_VEYu1JqmQReZd8N-188" value="" style="triangle;whiteSpace=wrap;html=1;fontSize=10;fontColor=#FF0000;rotation=-90;" vertex="1" parent="G6ge_VEYu1JqmQReZd8N-185">
          <mxGeometry x="-25" y="25" width="60" height="10" as="geometry" />
        </mxCell>
        <mxCell id="G6ge_VEYu1JqmQReZd8N-189" value="Techsol" style="text;html=1;strokeColor=none;fillColor=none;align=center;verticalAlign=middle;whiteSpace=wrap;rounded=0;fontSize=8;fontColor=#000099;fontStyle=1" vertex="1" parent="G6ge_VEYu1JqmQReZd8N-185">
          <mxGeometry x="24.29" y="74.41000000000003" width="31.428571428571427" height="20.588235294117645" as="geometry" />
        </mxCell>
        <mxCell id="G6ge_VEYu1JqmQReZd8N-190" value="009" style="text;html=1;strokeColor=none;fillColor=none;align=center;verticalAlign=middle;whiteSpace=wrap;rounded=0;fontSize=8;fontColor=#FF0000;fontStyle=3" vertex="1" parent="G6ge_VEYu1JqmQReZd8N-185">
          <mxGeometry x="94" y="75" width="30" height="20" as="geometry" />
        </mxCell>
        <mxCell id="G6ge_VEYu1JqmQReZd8N-191" value="" style="group" vertex="1" connectable="0" parent="1">
          <mxGeometry x="960" y="1100" width="125" height="95" as="geometry" />
        </mxCell>
        <mxCell id="G6ge_VEYu1JqmQReZd8N-192" value="" style="triangle;whiteSpace=wrap;html=1;fontSize=10;fontColor=#FF0000;rotation=-90;" vertex="1" parent="G6ge_VEYu1JqmQReZd8N-191">
          <mxGeometry x="65" y="30" width="60" height="10" as="geometry" />
        </mxCell>
        <mxCell id="G6ge_VEYu1JqmQReZd8N-193" value="" style="shape=cube;whiteSpace=wrap;html=1;boundedLbl=1;backgroundOutline=1;darkOpacity=0.05;darkOpacity2=0.1;fontSize=10;fontColor=#FF0000;" vertex="1" parent="G6ge_VEYu1JqmQReZd8N-191">
          <mxGeometry y="60" width="120" height="30" as="geometry" />
        </mxCell>
        <mxCell id="G6ge_VEYu1JqmQReZd8N-194" value="" style="triangle;whiteSpace=wrap;html=1;fontSize=10;fontColor=#FF0000;rotation=-90;" vertex="1" parent="G6ge_VEYu1JqmQReZd8N-191">
          <mxGeometry x="-25" y="25" width="60" height="10" as="geometry" />
        </mxCell>
        <mxCell id="G6ge_VEYu1JqmQReZd8N-195" value="Techsol" style="text;html=1;strokeColor=none;fillColor=none;align=center;verticalAlign=middle;whiteSpace=wrap;rounded=0;fontSize=8;fontColor=#000099;fontStyle=1" vertex="1" parent="G6ge_VEYu1JqmQReZd8N-191">
          <mxGeometry x="24.29" y="74.41000000000003" width="31.428571428571427" height="20.588235294117645" as="geometry" />
        </mxCell>
        <mxCell id="G6ge_VEYu1JqmQReZd8N-196" value="008" style="text;html=1;strokeColor=none;fillColor=none;align=center;verticalAlign=middle;whiteSpace=wrap;rounded=0;fontSize=8;fontColor=#FF0000;fontStyle=3" vertex="1" parent="G6ge_VEYu1JqmQReZd8N-191">
          <mxGeometry x="94" y="75" width="30" height="20" as="geometry" />
        </mxCell>
        <mxCell id="G6ge_VEYu1JqmQReZd8N-197" value="" style="group" vertex="1" connectable="0" parent="1">
          <mxGeometry x="960" y="910" width="125" height="95" as="geometry" />
        </mxCell>
        <mxCell id="G6ge_VEYu1JqmQReZd8N-198" value="" style="triangle;whiteSpace=wrap;html=1;fontSize=10;fontColor=#FF0000;rotation=-90;" vertex="1" parent="G6ge_VEYu1JqmQReZd8N-197">
          <mxGeometry x="65" y="30" width="60" height="10" as="geometry" />
        </mxCell>
        <mxCell id="G6ge_VEYu1JqmQReZd8N-199" value="" style="shape=cube;whiteSpace=wrap;html=1;boundedLbl=1;backgroundOutline=1;darkOpacity=0.05;darkOpacity2=0.1;fontSize=10;fontColor=#FF0000;" vertex="1" parent="G6ge_VEYu1JqmQReZd8N-197">
          <mxGeometry y="60" width="120" height="30" as="geometry" />
        </mxCell>
        <mxCell id="G6ge_VEYu1JqmQReZd8N-200" value="" style="triangle;whiteSpace=wrap;html=1;fontSize=10;fontColor=#FF0000;rotation=-90;" vertex="1" parent="G6ge_VEYu1JqmQReZd8N-197">
          <mxGeometry x="-25" y="25" width="60" height="10" as="geometry" />
        </mxCell>
        <mxCell id="G6ge_VEYu1JqmQReZd8N-201" value="Techsol" style="text;html=1;strokeColor=none;fillColor=none;align=center;verticalAlign=middle;whiteSpace=wrap;rounded=0;fontSize=8;fontColor=#000099;fontStyle=1" vertex="1" parent="G6ge_VEYu1JqmQReZd8N-197">
          <mxGeometry x="24.29" y="74.41000000000003" width="31.428571428571427" height="20.588235294117645" as="geometry" />
        </mxCell>
        <mxCell id="G6ge_VEYu1JqmQReZd8N-202" value="007" style="text;html=1;strokeColor=none;fillColor=none;align=center;verticalAlign=middle;whiteSpace=wrap;rounded=0;fontSize=8;fontColor=#FF0000;fontStyle=3" vertex="1" parent="G6ge_VEYu1JqmQReZd8N-197">
          <mxGeometry x="94" y="75" width="30" height="20" as="geometry" />
        </mxCell>
      </root>
    </mxGraphModel>
  </diagram>
</mxfile>
